<?xml version="1.0" encoding="UTF-8"?>
<svg width="108px" height="108px" viewBox="0 0 108 108" version="1.1" xmlns="http://www.w3.org/2000/svg" xmlns:xlink="http://www.w3.org/1999/xlink">
    <title>ic_launcher_foreground</title>
    <defs>
        <radialGradient cx="135.464954%" cy="51.6481994%" fx="135.464954%" fy="51.6481994%" r="200.213179%" gradientTransform="translate(1.3546, 0.5165), scale(1, 0.6515), rotate(42.8396), translate(-1.3546, -0.5165)" id="radialGradient-1">
            <stop stop-color="#000000" stop-opacity="0" offset="0%"></stop>
            <stop stop-color="#000000" stop-opacity="0.255217439" offset="100%"></stop>
        </radialGradient>
        <radialGradient cx="135.464954%" cy="51.6481994%" fx="135.464954%" fy="51.6481994%" r="201.768732%" gradientTransform="translate(1.3546, 0.5165), scale(1, 0.6408), rotate(43.3139), translate(-1.3546, -0.5165)" id="radialGradient-2">
            <stop stop-color="#000000" stop-opacity="0" offset="0%"></stop>
            <stop stop-color="#000000" stop-opacity="0.255217439" offset="100%"></stop>
        </radialGradient>
        <radialGradient cx="135.464954%" cy="51.6481994%" fx="135.464954%" fy="51.6481994%" r="202.375812%" gradientTransform="translate(1.3546, 0.5165), scale(1, 0.6367), rotate(43.4959), translate(-1.3546, -0.5165)" id="radialGradient-3">
            <stop stop-color="#000000" stop-opacity="0" offset="0%"></stop>
            <stop stop-color="#000000" stop-opacity="0.255217439" offset="100%"></stop>
        </radialGradient>
        <radialGradient cx="135.464954%" cy="51.6481994%" fx="135.464954%" fy="51.6481994%" r="1351.71418%" gradientTransform="translate(1.3546, 0.5165), scale(0.1088, 1), rotate(3.7623), translate(-1.3546, -0.5165)" id="radialGradient-4">
            <stop stop-color="#000000" stop-opacity="0" offset="0%"></stop>
            <stop stop-color="#000000" stop-opacity="0.255217439" offset="100%"></stop>
        </radialGradient>
    </defs>
    <g id="ic_launcher_foreground" stroke="none" stroke-width="1" fill="none" fill-rule="evenodd">
        <g id="tpk-shadow" transform="translate(21.6058, 32.1974)" fill-rule="nonzero" opacity="0.601841518">
            <path d="M22.0064795,38.3784498 L22.8038157,32.2123831 C15.4151668,32.0529158 12.9168467,31.3087354 12.9168467,27.5346773 L12.9168467,16.7972163 L22.2722583,16.7972163 L22.2722583,11.1095513 L12.9168467,11.1095513 L12.9168467,3.40196785 L5.42188626,4.09299257 L5.42188626,11.1095513 L0.637868972,11.1095513 L0,16.7972163 L5.42188626,16.7972163 L5.42188626,28.7041037 C5.42188626,35.8801297 9.40856733,38.6973843 22.0064795,38.3784498 Z" id="Path" fill="url(#radialGradient-1)"></path>
            <path d="M31.4008859,32.2655388 C30.3909267,32.2655388 29.6467462,32.1060716 28.9025657,31.7871371 C28.84941,25.6742261 28.7430985,21.0496761 28.6899428,17.6477082 C29.8062135,16.9035278 30.9756399,16.4782818 32.0919106,16.4782818 C35.1217882,16.4782818 37.3011739,19.1892249 37.3011739,24.9300456 C37.3011739,29.9798417 34.8028537,32.2655388 31.4008859,32.2655388 Z M28.9025657,46.7239022 L28.9025657,38.75054 C37.7795756,38.75054 44.7961343,33.062875 44.7961343,23.0695945 C44.7961343,15.3088553 40.7562975,10.3653708 35.2280997,10.3653708 C32.3576893,10.3653708 30.0188364,11.7474202 28.3178525,13.5547157 L27.998918,10.950084 L21.0886708,11.3221742 C21.3544496,16.3719703 21.4076053,23.4948405 21.4076053,38.2721383 L21.4076053,47.3617712 L28.9025657,46.7239022 Z" id="Shape" fill="url(#radialGradient-2)"></path>
            <path d="M58.7087792,38.4847613 L66.7884528,37.5279578 L58.4430005,23.4948405 C61.1539436,19.6144709 63.6522637,15.4683226 65.9911166,11.4816415 L58.2303775,10.950084 C56.3167706,14.7241421 54.3500079,18.2324214 52.0643107,21.5812335 L49.8317693,21.6343893 L49.8317693,0 L42.2836532,0.637868972 L42.2836532,38.0063596 L49.8317693,38.0063596 L49.8317693,27.0031198 L52.223778,26.8968083 L58.7087792,38.4847613 Z" id="Path" fill="url(#radialGradient-3)"></path>
            <polygon id="Path" fill="url(#radialGradient-4)" points="66.6737446 43.6103437 32.2075051 43.6103437 32.2075051 47.3617712 65.4011449 47.3617712"></polygon>
        </g>
        <g id="tpk" transform="translate(21.9758, 31.5045)" fill="#FFFFFF" fill-rule="nonzero">
            <path d="M21.275,37.1027778 L22.0458333,31.1416667 C14.9027778,30.9875 12.4875,30.2680556 12.4875,26.6194444 L12.4875,16.2388889 L21.5319444,16.2388889 L21.5319444,10.7402778 L12.4875,10.7402778 L12.4875,3.28888889 L5.24166667,3.95694444 L5.24166667,10.7402778 L0.616666667,10.7402778 L0,16.2388889 L5.24166667,16.2388889 L5.24166667,27.75 C5.24166667,34.6875 9.09583333,37.4111111 21.275,37.1027778 Z" id="Path"></path>
            <path d="M30.3571431,31.1930556 C29.3807542,31.1930556 28.6613097,31.0388889 27.9418653,30.7305556 C27.8904764,24.8208333 27.7876986,20.35 27.7363097,17.0611111 C28.8154764,16.3416667 29.9460319,15.9305556 31.0251986,15.9305556 C33.9543653,15.9305556 36.0613097,18.5513889 36.0613097,24.1013889 C36.0613097,28.9833333 33.6460319,31.1930556 30.3571431,31.1930556 Z M27.9418653,45.1708333 L27.9418653,37.4625 C36.5238097,37.4625 43.3071431,31.9638889 43.3071431,22.3027778 C43.3071431,14.8 39.4015875,10.0208333 34.0571431,10.0208333 C31.2821431,10.0208333 29.0210319,11.3569444 27.3765875,13.1041667 L27.0682542,10.5861111 L20.3876986,10.9458333 C20.6446431,15.8277778 20.6960319,22.7138889 20.6960319,37 L20.6960319,45.7875 L27.9418653,45.1708333 Z" id="Shape"></path>
            <path d="M56.7573417,37.2055556 L64.5684528,36.2805556 L56.5003972,22.7138889 C59.1212306,18.9625 61.5365083,14.9541667 63.7976194,11.1 L56.2948417,10.5861111 C54.4448417,14.2347222 52.5434528,17.6263889 50.3337306,20.8638889 L48.1753972,20.9152778 L48.1753972,0 L40.878175,0.616666667 L40.878175,36.7430556 L48.1753972,36.7430556 L48.1753972,26.1055556 L50.4878972,26.0027778 L56.7573417,37.2055556 Z" id="Path"></path>
            <polygon id="Path" points="64.4575573 42.1607673 31.1369509 42.1607673 31.1369509 45.7875 63.227258 45.7875"></polygon>
        </g>
    </g>
</svg>